<?xml version="1.0" encoding="UTF-8"?>
<svg xmlns="http://www.w3.org/2000/svg" viewBox="0 0 200 200" width="800" height="800">
  <rect x="0" y="0" width="200" height="200" rx="32" fill="#1C1917"/>
  <g transform="translate(32, 52)">
    <path d="M64 6 C64 6, 34 2, 4 16 C2 17, 0 19, 0 22 L0 92 C0 95, 2 97, 4 96 C34 84, 64 86, 64 86Z" fill="#f5f0eb" opacity="0.85"/>
    <path d="M72 6 C72 6, 102 2, 132 16 C134 17, 136 19, 136 22 L136 92 C136 95, 134 97, 132 96 C102 84, 72 86, 72 86Z" fill="#f5f0eb" opacity="0.85"/>
    <line x1="68" y1="4" x2="68" y2="88" stroke="#F7931A" stroke-width="3" stroke-linecap="round"/>
  </g>
</svg>